<svg width="66" height="27" viewBox="0 0 66 27" fill="none" xmlns="http://www.w3.org/2000/svg">
<path d="M36.1984 9.98719C36.5848 11.3156 36.7594 12.6958 36.716 14.0785C36.6521 15.4532 36.3946 16.8132 35.951 18.1192C35.5395 19.4024 34.9728 20.6325 34.2632 21.7829C33.5595 22.936 32.656 23.9586 31.594 24.804C31.0568 25.2281 30.4605 25.5734 29.8236 25.8294C29.1653 26.1038 28.4543 26.2321 27.7411 26.2052C26.9454 26.1664 26.1867 25.8661 25.5857 25.3521C24.9847 24.8105 24.5522 24.1114 24.3384 23.3359C24.2304 22.9764 24.1525 22.6087 24.1054 22.2364C24.0717 21.8791 24.0571 21.5203 24.0615 21.1614C24.0648 20.8161 24.091 20.4714 24.1397 20.1293L24.1983 19.5979L24.2933 19.104C24.5579 17.8511 24.9452 16.6261 25.4499 15.4463C25.9283 14.2836 26.571 13.193 27.3589 12.2071C28.107 11.2726 28.9883 10.4496 29.9751 9.76392L30.3278 9.51182L30.7006 9.29402C30.9439 9.14945 31.197 8.99846 31.4363 8.86486C31.9273 8.60405 32.4317 8.36848 32.9472 8.15909C33.2467 8.03925 33.5532 7.93428 33.8598 7.82932C33.722 7.56791 33.5775 7.33878 33.4221 7.06374C32.8093 6.07387 32.064 5.17026 31.2062 4.37721C30.3751 3.62841 29.4328 3.00939 28.4115 2.54151C26.433 1.70695 24.2869 1.32622 22.1346 1.42792C20.1178 1.52466 18.1236 1.89814 16.2096 2.53758C14.4547 3.1173 12.7497 3.83578 11.1113 4.68601C9.66694 5.41617 8.27327 6.24042 6.93957 7.15327C4.97724 8.48161 3.24746 10.117 1.81879 11.9947C0.818167 13.3629 0.415318 14.2608 0.343091 14.1908C0.380867 13.9575 0.458082 13.732 0.57151 13.5236C0.8432 12.9135 1.16196 12.3247 1.52498 11.7625C2.86827 9.75854 4.5615 8.0051 6.52554 6.58415C7.855 5.60114 9.25155 4.70985 10.7052 3.91666C12.3609 2.99539 14.0899 2.20908 15.8748 1.56562C17.8609 0.846454 19.9393 0.408093 22.048 0.263602C24.375 0.100405 26.707 0.468348 28.8629 1.33886C30.0186 1.84015 31.0881 2.51489 32.0337 3.33918C33.0112 4.21074 33.8616 5.21163 34.5608 6.31352C34.807 6.68976 35.0314 7.07954 35.2328 7.48099C36.4399 7.17975 37.6716 6.98628 38.9132 6.90292C42.2183 6.70876 45.5326 6.99661 48.7492 7.75718C51.0841 8.29222 53.3708 9.01215 55.5871 9.90999C58.0506 10.8861 60.3994 12.1215 62.5928 13.5949L63.2576 14.0815L62.948 13.3635C62.6362 12.5828 62.3788 11.8114 62.1414 11.0742C61.7399 9.76432 61.4405 8.42576 61.2459 7.07021C60.9143 4.75012 61.0281 3.3048 61.2181 3.29248C61.4081 3.28017 61.6869 4.67312 62.2501 6.83956C62.5454 7.92638 62.9069 9.20978 63.4085 10.597C63.6573 11.2961 63.9354 12.0179 64.2468 12.7514C64.4081 13.1201 64.57 13.494 64.7423 13.8666C64.8288 14.0555 64.9175 14.2179 65.0263 14.5038C65.1782 14.8741 65.2031 15.2836 65.0971 15.67C65.0354 15.8755 64.9316 16.0665 64.7921 16.231C64.6807 16.3583 64.553 16.4706 64.412 16.5651C64.2003 16.6992 63.9747 16.8107 63.7392 16.8975C63.3688 17.0469 62.9972 17.1859 62.6367 17.3288C61.9093 17.6049 61.2061 17.8623 60.5333 18.1057C59.185 18.5716 57.9736 18.9373 56.9133 19.2323C54.8532 19.7942 53.5107 19.9973 53.4492 19.7949C53.3876 19.5926 54.605 19.0112 56.5844 18.1758L60.0669 16.7457C60.7227 16.4782 61.4069 16.1968 62.1197 15.9015C62.4743 15.754 62.8394 15.6053 63.2045 15.4566C63.2146 15.4531 63.2254 15.4519 63.236 15.4528C62.9429 15.315 62.5349 15.107 61.9647 14.7873C59.7331 13.5643 57.422 12.4875 55.0463 11.5639C52.8912 10.7516 50.6791 10.0935 48.4272 9.59459C45.3646 8.89495 42.2146 8.63194 39.0734 8.81357C38.0354 8.88734 37.0046 9.04086 35.9903 9.27274C36.0719 9.50942 36.1535 9.74611 36.2246 9.98405L36.1984 9.98719ZM33.6043 9.99961C33.1448 10.1787 32.6951 10.3814 32.257 10.6071C32.0421 10.722 31.8291 10.8525 31.6102 10.9784L31.2873 11.1692L30.9787 11.3898C30.1239 11.9696 29.362 12.6727 28.7185 13.4755C28.0327 14.3219 27.4719 15.2597 27.0529 16.2608C26.5877 17.3153 26.2294 18.4123 25.9833 19.5357L25.896 19.9605L25.8401 20.3815C25.8014 20.6591 25.7781 20.9385 25.7704 21.2185C25.7508 21.4988 25.7852 21.7411 25.7944 22.0389C25.8244 22.2953 25.8761 22.5488 25.9491 22.7965C26.0334 23.2341 26.2621 23.6315 26.5996 23.9267C26.9371 24.222 27.3645 24.3986 27.8152 24.429C28.8587 24.4116 29.8648 24.0368 30.6612 23.369C31.5754 22.6544 32.357 21.7886 32.971 20.8105C33.6198 19.7819 34.1412 18.6805 34.524 17.53C34.934 16.3844 35.179 15.1881 35.2517 13.9763C35.298 12.7667 35.1529 11.558 34.8217 10.3937C34.754 10.1396 34.6758 9.88675 34.593 9.63972C34.255 9.74846 33.9228 9.86175 33.5716 9.99305" fill="white"/>
</svg>
