<svg width="59" height="59" viewBox="0 0 59 59" fill="none" xmlns="http://www.w3.org/2000/svg">
<circle cx="29.1253" cy="29.8457" r="29.0418" fill="#3C7EBB"/>
<g clip-path="url(#clip0_222_103)">
<path d="M31.1581 27.257C30.4385 27.7803 29.725 28.3036 29.0054 28.8269C28.8886 28.9131 28.8209 28.9747 28.907 29.1409C29.6389 30.5631 29.8234 32.0653 29.4852 33.629C29.4729 33.6783 29.4729 33.7275 29.4667 33.7829C29.313 34.2508 29.1469 34.7187 28.9378 35.1681C28.3596 36.1901 27.6031 37.052 26.6068 37.6862C22.652 40.2042 17.3011 37.7292 16.6861 33.0872C16.2002 29.4241 18.6911 26.1304 22.3322 25.6871C24.4172 25.4347 26.2316 26.075 27.7384 27.5464C27.8984 27.7003 27.9906 27.7372 28.1813 27.5895C28.8824 27.06 29.602 26.549 30.3155 26.038C30.5984 26.4444 30.8752 26.8507 31.1581 27.257ZM23.1133 37.1875C25.9056 37.1875 28.1628 34.9404 28.1628 32.1638C28.1628 29.418 25.9118 27.177 23.2056 27.1277C20.524 27.0785 18.0945 29.2825 18.0945 32.1638C18.1007 34.9342 20.3456 37.1875 23.1133 37.1875Z" fill="white"/>
<path d="M28.9378 35.162C29.1408 34.7126 29.313 34.2447 29.4667 33.7768C30.2417 34.0661 31.0167 34.3555 31.7855 34.6571C31.9884 34.7372 32.0991 34.7249 32.2283 34.5217C33.4092 32.6932 35.5311 31.8128 37.5976 32.2684C39.7195 32.7363 41.2879 34.4478 41.5831 36.6272C41.989 39.6008 39.5904 42.3466 36.5951 42.3466C33.9627 42.3466 31.8531 40.5366 31.4718 37.9386C31.398 37.4399 31.398 36.935 31.5025 36.4364C31.5456 36.2332 31.5087 36.1285 31.2873 36.0547C30.5 35.7715 29.7189 35.4636 28.9378 35.162ZM35.7894 35.6237C35.7894 35.0819 35.7771 34.534 35.7956 33.9922C35.8017 33.7644 35.7463 33.7214 35.5249 33.7829C33.9443 34.2323 32.8618 35.7345 32.9233 37.4214C32.9786 38.9051 33.9935 40.2349 35.4327 40.6967C36.8719 41.1584 38.4648 40.6597 39.3751 39.4777C39.535 39.2745 39.5412 39.1822 39.2706 39.0837C38.2926 38.7266 37.3209 38.351 36.3429 37.9755C35.9432 37.8216 35.7956 37.6123 35.7956 37.1875C35.7894 36.6703 35.7894 36.147 35.7894 35.6237ZM37.2594 35.2359C37.2594 35.6668 37.2594 36.0978 37.2594 36.5226C37.2594 36.6518 37.2717 36.7504 37.4254 36.8058C38.2557 37.1136 39.086 37.4337 39.9164 37.7539C40.0763 37.8154 40.107 37.76 40.1255 37.6123C40.3469 35.9439 39.0922 34.1338 37.4562 33.7583C37.2963 33.7214 37.2594 33.7583 37.2594 33.906C37.2594 34.3555 37.2594 34.7926 37.2594 35.2359Z" fill="white"/>
<path d="M31.1581 27.257C30.8752 26.8507 30.5984 26.4444 30.3155 26.0381C30.0326 25.3424 29.8173 24.6344 29.8542 23.871C29.8604 23.7663 29.8542 23.6678 29.8665 23.5631C29.9157 23.046 29.9157 23.046 29.4175 22.8551C28.6672 22.5658 27.9107 22.2764 27.1603 21.9871C27.4309 21.5684 27.5908 21.1005 27.6831 20.6142C28.5257 20.9282 29.3745 21.236 30.2109 21.5623C30.4139 21.6423 30.5062 21.5992 30.6292 21.4268C31.7854 19.8015 33.3784 19.0997 35.3281 19.4814C37.2409 19.8569 38.4464 21.0821 38.9138 22.9783C39.3689 24.8375 38.5079 26.8569 36.8657 27.8665C35.1989 28.8947 33.0647 28.7654 31.5763 27.5526C31.441 27.4479 31.3365 27.3001 31.1581 27.257ZM37.5361 23.9695C37.5361 22.2703 36.1461 20.8727 34.4547 20.8727C32.7388 20.8727 31.3365 22.258 31.3303 23.9633C31.3242 25.6625 32.7388 27.0847 34.4363 27.0847C36.1338 27.0847 37.5361 25.6748 37.5361 23.9695Z" fill="white"/>
<path d="M27.6831 20.6142C27.5847 21.1006 27.4248 21.5623 27.1603 21.9871C26.4899 22.8183 25.6473 23.2923 24.5525 23.2061C23.3593 23.1138 22.5106 22.4981 22.0493 21.4084C21.588 20.3249 21.7602 19.2906 22.5167 18.3917C23.3593 17.3944 24.6755 17.0866 25.8564 17.5606C27.0127 18.0285 27.7385 19.1921 27.6769 20.4911C27.6831 20.5342 27.6831 20.5773 27.6831 20.6142ZM24.7432 21.7286C25.5366 21.7286 26.2008 21.076 26.2008 20.2879C26.207 19.5061 25.5427 18.835 24.7555 18.835C23.9621 18.835 23.2978 19.4876 23.2978 20.2756C23.2917 21.0637 23.9559 21.7286 24.7432 21.7286Z" fill="white"/>
<path d="M23.8821 30.7847C23.8821 31.2034 23.876 31.622 23.8821 32.0468C23.8883 32.3793 23.7653 32.6379 23.4885 32.8287C23.0026 33.1673 22.5229 33.5244 22.0432 33.863C21.6372 34.1524 21.1821 34.0969 20.9299 33.746C20.6778 33.3951 20.7762 32.9457 21.1759 32.6563C21.4712 32.4408 21.7664 32.2131 22.0739 32.016C22.3076 31.8683 22.3999 31.7021 22.3876 31.4189C22.363 30.7971 22.3753 30.1691 22.3814 29.5411C22.3876 29.0486 22.609 28.7531 22.9657 28.6854C23.4578 28.593 23.8575 28.9132 23.8698 29.4303C23.8883 29.8797 23.8821 30.3292 23.8821 30.7847Z" fill="white"/>
</g>
<defs>
<clipPath id="clip0_222_103">
<rect width="25.0016" height="25.0016" fill="white" transform="translate(16.6246 17.3451)"/>
</clipPath>
</defs>
</svg>
