<svg width="59" height="59" viewBox="0 0 59 59" fill="none" xmlns="http://www.w3.org/2000/svg">
<circle cx="29.5548" cy="29.7902" r="29.0418" fill="#FBBA34"/>
<g clip-path="url(#clip0_222_78)">
<path d="M20.2721 17.2893C24.9745 17.2893 29.6768 17.2893 34.3792 17.2893C35.8133 17.8563 36.169 18.3899 36.169 19.9907C36.169 20.5576 36.169 21.1357 36.169 21.7027C35.6799 21.7027 35.2019 21.7027 34.7127 21.7027C34.7127 21.069 34.7127 20.4465 34.7127 19.8128C34.7127 18.9568 34.5015 18.7456 33.6344 18.7456C29.4656 18.7456 25.308 18.7456 21.1392 18.7456C20.172 18.7456 19.983 18.9346 19.983 19.924C19.983 25.9159 19.983 31.9189 19.983 37.9109C19.983 38.0999 19.9275 38.3111 20.0831 38.5445C20.9391 37.8998 21.8062 37.2772 22.6399 36.6102C23.2625 36.1211 23.885 36.0544 24.5965 36.399C25.5748 36.877 26.5753 37.2994 27.5536 37.7775C27.8648 37.922 28.0649 37.922 28.3206 37.6774C28.9543 37.0882 29.6324 36.5324 30.2883 35.9543C31.3666 35.0094 32.456 34.0645 33.5677 33.0973C33.212 32.9639 32.9007 32.9862 32.5894 32.9639C32.0336 32.9195 31.689 32.6082 31.7334 32.1635C31.7668 31.7522 32.1336 31.4743 32.6673 31.5187C33.5566 31.5743 34.4348 31.6521 35.3242 31.7188C35.9578 31.7633 36.1913 31.9968 36.1579 32.6304C36.1134 33.5309 36.0356 34.4424 35.9689 35.3429C35.9245 35.8876 35.6243 36.1767 35.1796 36.1322C34.735 36.0877 34.4904 35.7431 34.5237 35.2095C34.546 34.8982 34.6238 34.5758 34.5571 34.209C34.4015 34.3313 34.3014 34.4091 34.2125 34.4869C32.5894 35.8987 30.9553 37.2772 29.3656 38.7224C28.5874 39.4227 27.8537 39.5895 26.9088 39.0892C26.0973 38.6557 25.2302 38.3333 24.3964 37.9553C23.7072 37.5774 23.7072 37.5774 22.929 38.2777C22.2731 38.7557 21.6172 39.2338 20.9613 39.7118C20.4611 40.0786 19.9275 40.1898 19.3494 39.9008C18.8047 39.6228 18.5601 39.1559 18.549 38.5445C18.549 38.3778 18.549 38.211 18.549 38.0443C18.5379 32.0635 18.5601 26.0715 18.5268 20.0685C18.5156 18.7123 18.9603 17.7562 20.2721 17.2893Z" fill="white"/>
<path d="M22.9182 38.2888C23.6964 37.5885 23.7075 37.5773 24.3856 37.9664C24.3856 38.9225 24.3856 39.8785 24.3856 40.8345C24.5746 41.0124 24.7969 40.9679 25.0193 40.9679C29.3326 40.9679 33.6459 40.9679 37.9592 40.9679C38.1815 40.9679 38.4038 41.0124 38.5928 40.8457C38.8485 40.69 39.0153 40.4677 39.1375 40.2009C39.2821 40.0341 39.2598 39.8229 39.2598 39.6228C39.2598 34.5425 39.2598 29.4621 39.2598 24.3818C39.2598 24.1594 39.3043 23.926 39.0931 23.7703C38.9152 23.2923 38.5595 23.1923 38.0815 23.1923C33.9238 23.2034 29.7661 23.2034 25.6085 23.2034C24.4968 23.2034 24.3745 23.3257 24.3745 24.4373C24.3745 27.5611 24.3745 30.685 24.3745 33.8088C24.3745 34.2423 24.2522 34.5869 23.7742 34.6647C23.3295 34.7314 23.0183 34.5758 22.9404 34.0867C23.0627 33.9088 23.0405 33.6976 23.0405 33.4975C23.0405 30.4181 23.0405 27.3277 23.0405 24.2484C23.0405 24.0483 23.0738 23.837 22.9516 23.6592C23.1183 22.592 23.752 21.9583 24.8303 21.7804C24.997 21.8916 25.186 21.8694 25.3639 21.8694C28.2876 21.8694 31.2113 21.8694 34.1239 21.8694C34.324 21.8694 34.5352 21.8916 34.702 21.7471V21.7249C35.1911 21.7249 35.6691 21.7249 36.1583 21.7249L36.1471 21.7471C36.992 21.9583 37.848 21.9027 38.6929 21.7804C39.9602 22.0584 40.5383 22.8365 40.5494 24.2706C40.5494 29.3621 40.5271 34.4424 40.5716 39.5339C40.5827 40.8901 40.1381 41.8462 38.8152 42.3131C33.6681 42.3131 28.5211 42.3131 23.374 42.3131C23.2295 42.1352 22.9627 42.0352 22.9516 41.7572C23.1405 40.9012 23.0071 40.0341 23.0294 39.1781C23.0405 38.8891 23.1183 38.589 22.9182 38.3222V38.2888Z" fill="white"/>
<path d="M39.1487 40.1787C39.1375 36.2545 39.1375 32.3303 39.1264 28.4061C39.1264 26.8497 39.1153 25.2934 39.1042 23.7371C39.3154 23.9038 39.2709 24.1373 39.2709 24.3485C39.2709 29.4288 39.2709 34.5092 39.2709 39.5895C39.2709 39.8008 39.2932 40.012 39.1487 40.1787Z" fill="white"/>
<path d="M24.3968 40.8235C29.1325 40.8235 33.8683 40.8235 38.604 40.8235C38.415 40.9902 38.1816 40.9458 37.9703 40.9458C33.657 40.9458 29.3437 40.9458 25.0304 40.9458C24.8081 40.9569 24.5747 41.0014 24.3968 40.8235Z" fill="white"/>
<path d="M22.9627 34.0645C22.9627 30.5849 22.9627 27.1054 22.9627 23.6259C23.085 23.8037 23.0516 24.0149 23.0516 24.215C23.0516 27.2944 23.0516 30.3848 23.0516 33.4642C23.0516 33.6754 23.085 33.8866 22.9627 34.0645Z" fill="white"/>
<path d="M24.8303 21.7471C27.754 21.736 30.6777 21.7249 33.6014 21.7249C33.9683 21.7249 34.3463 21.7249 34.7131 21.7249C34.5352 21.8694 34.3351 21.8471 34.135 21.8471C31.2113 21.8471 28.2876 21.8471 25.375 21.8471C25.1861 21.8471 24.9971 21.8694 24.8303 21.7471Z" fill="white"/>
<path d="M22.9627 41.7239C22.9516 40.5789 22.9404 39.4338 22.9293 38.2888C23.1294 38.5556 23.0516 38.8558 23.0405 39.1448C23.0183 40.0119 23.1628 40.8679 22.9627 41.7239Z" fill="white"/>
<path d="M36.1583 21.7249C37.0031 21.736 37.8591 21.7471 38.704 21.7582C37.8591 21.8805 37.0031 21.9361 36.1583 21.7249Z" fill="white"/>
<path d="M31.7782 25.26C32.4786 25.26 33.179 25.2712 33.8793 25.26C34.3685 25.2489 34.6575 25.4824 34.702 25.9604C34.7464 26.3828 34.3907 26.7052 33.8682 26.7163C32.4675 26.7275 31.0557 26.7275 29.6549 26.7163C29.1325 26.7163 28.7767 26.3828 28.8323 25.9493C28.8879 25.4713 29.188 25.2489 29.6661 25.26C30.3664 25.2712 31.0668 25.26 31.7782 25.26Z" fill="white"/>
<path d="M31.7449 28.1726C32.1118 28.1726 32.4786 28.1504 32.8455 28.1726C33.2902 28.1949 33.5792 28.4172 33.6014 28.8841C33.6237 29.3176 33.3124 29.6067 32.8233 29.6178C32.1229 29.6289 31.4225 29.6289 30.7222 29.6178C30.2331 29.6067 29.9107 29.2954 29.944 28.873C29.9774 28.3838 30.2775 28.1615 30.7555 28.1504C31.089 28.1726 31.4114 28.1726 31.7449 28.1726Z" fill="white"/>
</g>
<defs>
<clipPath id="clip0_222_78">
<rect width="22.0556" height="25.0016" fill="white" transform="translate(18.5271 17.2893)"/>
</clipPath>
</defs>
</svg>
