<svg width="59" height="59" viewBox="0 0 59 59" fill="none" xmlns="http://www.w3.org/2000/svg">
<circle cx="29.0418" cy="29.7774" r="29.0418" fill="#089949"/>
<g clip-path="url(#clip0_222_148)">
<path d="M44.6677 28.2384V28.2528L44.6038 31.6966V31.7397C43.8586 35.6868 40.6787 38.9005 36.8104 39.6122C36.711 39.6338 36.6045 39.6482 36.5052 39.6626C35.6179 39.792 34.7591 39.8279 33.9428 39.7488C32.6084 39.6338 31.3521 39.2456 30.1952 38.5841C30.1881 38.5841 30.1881 38.577 30.181 38.577C29.8119 38.3685 29.4499 38.1312 29.1021 37.8652C28.662 37.5345 28.2361 37.1678 27.8245 36.7508C27.7606 36.6861 27.7038 36.6286 27.6399 36.5639C25.9364 34.8456 24.2329 33.1273 22.5436 31.4018C20.7266 29.5397 21.5428 26.4123 24.0342 25.7437C24.6801 25.5711 25.2905 25.5711 25.8583 25.7437C26.3765 25.9018 26.8592 26.2038 27.2992 26.6424C28.9459 28.2959 30.5784 29.9567 32.218 31.6175C32.4381 31.8404 32.6794 31.9914 32.9349 32.0561C33.1905 32.1208 33.4673 32.1136 33.7583 32.0201C34.3403 31.826 34.6881 31.4018 34.7804 30.7835C34.8514 30.3306 34.7236 29.9064 34.4042 29.5829C33.957 29.1299 33.517 28.677 33.0769 28.2169C31.5792 26.6711 30.0958 25.111 28.5059 23.6731C28.229 23.4214 27.938 23.1914 27.647 22.9829C25.5673 21.509 23.1612 21.2502 20.6414 22.1345C17.7526 23.1411 15.971 25.2692 15.4032 28.3103C14.5727 32.7175 17.4616 36.9449 21.7913 37.7717C23.0547 38.0162 24.311 37.9371 25.546 37.5848C26.0713 37.4338 26.561 37.707 26.7101 38.2103C26.845 38.656 26.6604 39.0874 26.2558 39.3031C25.326 39.5979 24.3323 39.756 23.3031 39.756C17.8377 39.756 13.4158 35.277 13.4158 29.7482C13.4158 29.2809 13.4513 28.8208 13.508 28.3678C13.5506 28.1665 13.579 27.9652 13.6074 27.7639V27.7567C13.6216 27.6848 13.6358 27.6129 13.65 27.541C13.7565 27.0809 13.8913 26.628 14.0546 26.1894C14.0901 26.1031 14.1256 26.0097 14.161 25.9234C14.1823 25.8731 14.2036 25.8227 14.2249 25.7796C15.5522 22.6881 18.363 20.4234 21.7132 19.9201C24.4814 19.5032 26.9443 20.0999 29.0666 21.6888C29.4996 22.0123 29.9183 22.3718 30.3158 22.7744C30.5217 22.9829 30.7275 23.1842 30.9333 23.3855C32.5091 24.96 34.0635 26.5489 35.625 28.145C36.569 29.1084 36.8672 30.2731 36.4839 31.5672C36.1006 32.8613 35.1992 33.6665 33.879 33.9038C33.3253 34.0044 32.8072 33.9829 32.3245 33.8319C31.7993 33.6737 31.3166 33.3789 30.8836 32.9404C29.244 31.2868 27.6115 29.6188 25.9648 27.9652C25.7519 27.7495 25.5106 27.5986 25.255 27.5267C24.9924 27.4548 24.7156 27.4691 24.4246 27.5698C23.8567 27.7639 23.516 28.1809 23.4167 28.7848C23.3457 29.2378 23.4593 29.6691 23.7787 29.9855C24.2329 30.4456 24.6801 30.9057 25.1344 31.3731C26.6391 32.9332 28.1368 34.5077 29.7338 35.9672C29.9822 36.19 30.2377 36.3985 30.5146 36.5855C33.4176 38.5841 37.5202 38.3109 40.1819 35.8953C42.0628 34.1842 42.9713 32.0417 42.9216 29.4894C42.8507 25.7293 39.8979 22.343 36.2283 21.775C35.0288 21.5881 33.8506 21.6528 32.6865 21.9764C32.0903 22.1417 31.6005 21.8901 31.4515 21.3509C31.3024 20.8188 31.6076 20.3371 32.1968 20.1646C37.8183 18.5326 43.5463 22.1705 44.6251 27.9868C44.6322 28.0227 44.6393 28.0587 44.6464 28.0946C44.6464 28.145 44.6535 28.1881 44.6677 28.2384Z" fill="white"/>
</g>
<defs>
<clipPath id="clip0_222_148">
<rect width="31.2519" height="20.0012" fill="white" transform="translate(13.4158 19.7767)"/>
</clipPath>
</defs>
</svg>
