<svg width="59" height="59" viewBox="0 0 59 59" fill="none" xmlns="http://www.w3.org/2000/svg">
<circle cx="29.0666" cy="29.9035" r="29.0418" fill="#3C7EBB"/>
<g clip-path="url(#clip0_222_66)">
<path d="M34.8154 40.9403C36.4129 40.7436 37.7665 40.0746 38.7974 38.8076C40.9851 36.132 40.2533 32.0634 37.2707 30.3164C37.1369 30.2377 36.9953 30.1669 36.8615 30.0882C36.468 29.86 36.3342 29.4586 36.5231 29.0888C36.712 28.7189 37.1133 28.5851 37.5304 28.774C38.0104 28.9943 38.4511 29.2776 38.8525 29.616C40.7412 31.1899 41.717 33.2281 41.5439 35.6598C41.2448 39.9409 37.7507 42.404 34.4927 42.404C28.8188 42.404 23.137 42.404 17.463 42.404C16.802 42.404 16.558 42.1679 16.558 41.5069C16.558 39.5002 16.558 37.4934 16.558 35.4867C16.558 34.0702 17.3843 32.9055 18.7379 32.4412C22.7514 31.064 26.7648 29.6868 30.7783 28.3097C33.0211 27.5385 35.264 26.7751 37.5068 25.996C39.3168 25.3665 40.3162 23.6981 39.9936 21.8724C39.7024 20.1411 38.1757 18.8977 36.3264 18.8977C30.3612 18.8977 24.3961 18.8977 18.431 18.8977C18.2893 18.8977 18.1398 18.8583 18.0139 18.9685C17.825 19.0472 17.9037 19.2203 17.9037 19.3463C17.8959 23.1236 17.8959 26.9089 17.9037 30.6863C17.9037 30.8201 17.8487 30.9774 17.9982 31.0876C17.9037 31.5126 17.6204 31.7408 17.2348 31.7014C16.8256 31.6621 16.5738 31.3631 16.5659 30.883C16.5659 27.5148 16.5659 24.1467 16.5659 20.7864C16.5659 19.9365 16.5659 19.0866 16.5659 18.2288C16.5659 17.7723 16.7233 17.5677 17.1955 17.4182C17.2506 17.6071 17.408 17.5441 17.526 17.5441C23.8374 17.5441 30.1409 17.5441 36.4523 17.5441C36.5703 17.5441 36.7277 17.6071 36.7828 17.4261C39.0728 17.6071 40.8671 19.2203 41.4337 21.3687C42.0318 23.6273 40.7018 26.4997 38.097 27.3889C32.2814 29.3642 26.4815 31.3631 20.6738 33.3619C20.2803 33.4957 19.8869 33.6531 19.4855 33.7633C18.7379 33.9679 18.25 34.4243 18.0454 35.1719C17.8565 35.2113 17.9116 35.3687 17.9116 35.4867C17.9116 37.1865 17.9116 38.8863 17.9116 40.5862C17.9116 40.7121 17.8644 40.8616 18.0454 40.9167L18.0611 40.9324C18.1162 41.1134 18.2657 41.0662 18.3916 41.0662C23.7587 41.0662 29.1257 41.0662 34.4927 41.0662C34.6029 41.0662 34.7603 41.1292 34.8154 40.9403Z" fill="white"/>
<path d="M27.7327 24.745C27.7327 26.3583 26.4263 27.6725 24.8131 27.6803C23.1919 27.6882 21.8541 26.3583 21.8541 24.7371C21.8541 23.116 23.1841 21.7939 24.8131 21.8018C26.4263 21.8175 27.7327 23.1317 27.7327 24.745ZM24.7973 23.2891C24.0104 23.2891 23.3415 23.9502 23.3336 24.7293C23.3257 25.5241 24.0025 26.2009 24.8052 26.193C25.6 26.1851 26.2375 25.532 26.2375 24.7371C26.2453 23.9423 25.5922 23.2891 24.7973 23.2891Z" fill="white"/>
<path d="M35.0593 35.0777C35.0593 36.7145 33.7529 38.013 32.1082 38.0051C30.4949 37.9973 29.1807 36.6752 29.1886 35.0698C29.1964 33.4408 30.5264 32.1109 32.1475 32.1345C33.7687 32.1502 35.0593 33.4565 35.0593 35.0777ZM32.1318 36.5178C32.9423 36.5178 33.5798 35.8804 33.5798 35.0777C33.5798 34.2829 32.9345 33.6218 32.1475 33.6061C31.3527 33.5982 30.668 34.2829 30.668 35.0777C30.6759 35.8804 31.3291 36.5178 32.1318 36.5178Z" fill="white"/>
<path d="M36.7748 17.4263C36.7197 17.6073 36.5623 17.5444 36.4443 17.5444C30.1329 17.5444 23.8294 17.5444 17.518 17.5444C17.4 17.5444 17.2426 17.6073 17.1875 17.4184C17.3055 17.4106 17.4078 17.4027 17.5102 17.4027C23.8137 17.4027 30.1172 17.4027 36.4285 17.4027C36.5466 17.4027 36.6646 17.4184 36.7748 17.4263Z" fill="white"/>
<path d="M34.8153 40.9405C34.7602 41.1294 34.6107 41.0665 34.4927 41.0665C29.1256 41.0665 23.7586 41.0665 18.3916 41.0665C18.2656 41.0665 18.1161 41.1137 18.061 40.9327C23.6248 40.9327 29.1807 40.9248 34.7445 40.9248C34.7602 40.9327 34.7838 40.9327 34.8153 40.9405Z" fill="white"/>
<path d="M17.9981 31.0879C17.8564 30.9856 17.9036 30.8282 17.9036 30.6865C17.9036 26.9091 17.9036 23.1239 17.9036 19.3465C17.9036 19.2206 17.825 19.0474 18.0138 18.9688C18.0217 19.0474 18.0296 19.1261 18.0296 19.2048C18.0296 23.0767 18.0296 26.9485 18.0296 30.8203C18.0296 30.9069 18.0138 31.0013 17.9981 31.0879Z" fill="white"/>
<path d="M18.0374 40.9169C17.8642 40.8618 17.9036 40.7123 17.9036 40.5864C17.9036 38.8865 17.9036 37.1867 17.9036 35.4869C17.9036 35.3689 17.8485 35.2115 18.0374 35.1721C18.0374 37.0844 18.0374 39.0046 18.0374 40.9169Z" fill="white"/>
</g>
<defs>
<clipPath id="clip0_222_66">
<rect width="25.0016" height="25.0016" fill="white" transform="translate(16.5658 17.4027)"/>
</clipPath>
</defs>
</svg>
