<svg width="59" height="59" viewBox="0 0 59 59" fill="none" xmlns="http://www.w3.org/2000/svg">
<circle cx="29.0678" cy="29.7774" r="29.0418" fill="#E32629"/>
<g clip-path="url(#clip0_222_74)">
<path d="M29.4325 17.2891C31.7635 17.2891 34.0945 17.3011 36.4195 17.2831C37.3579 17.2772 38.1409 17.6238 38.8402 18.2096C39.6231 18.867 40.185 19.6978 40.6213 20.6123C41.4222 22.2918 41.8466 24.073 41.9781 25.9258C42.0617 27.1033 41.3624 28.0357 40.2507 28.3226C40.0834 28.3644 39.916 28.3644 39.7487 28.3644C37.3997 28.3704 35.0508 28.3764 32.7018 28.3823C32.5584 28.3823 32.409 28.3345 32.4269 28.5915C32.5345 30.1694 32.7018 31.7414 33.1919 33.2595C33.8494 35.3036 34.8595 37.1266 36.4852 38.567C37.2623 39.2544 38.1528 39.7445 39.133 40.0792C39.8503 40.3183 40.1073 41.1072 39.6949 41.699C39.4916 41.9918 39.1988 42.1114 38.8581 42.1652C37.1845 42.4222 35.5708 42.219 34.0168 41.5256C33.3055 41.2089 32.654 40.7964 32.0324 40.3302C31.6738 40.0613 31.5662 40.0673 31.2435 40.384C30.7952 40.8204 30.3529 41.2686 29.9046 41.7049C29.0858 42.4879 27.992 42.4819 27.1851 41.693C26.7488 41.2686 26.3185 40.8443 25.8821 40.4199C25.5713 40.1151 25.4279 40.1151 25.1111 40.4259C24.6748 40.8502 24.2504 41.2806 23.8081 41.699C22.9116 42.5357 21.8118 42.4879 21.005 41.5675C18.5185 38.7224 16.9645 35.4531 16.3908 31.7294C15.7452 27.5336 16.4087 23.547 18.3751 19.7875C19.2358 18.1378 20.6284 17.2891 22.4992 17.2831C24.8063 17.2712 27.1194 17.2831 29.4265 17.2831C29.4325 17.2831 29.4325 17.2831 29.4325 17.2891ZM33.4968 18.7893C33.3653 18.7893 33.2756 18.7893 33.186 18.7893C29.6596 18.7893 26.1392 18.7953 22.6128 18.7834C21.2201 18.7774 20.2399 19.3811 19.6243 20.6123C17.8671 24.0969 17.2634 27.7607 17.885 31.6159C18.4229 34.9689 19.8275 37.9215 22.0569 40.4856C22.3856 40.8622 22.5111 40.8682 22.8757 40.5096C23.3061 40.0852 23.7304 39.6489 24.1727 39.2305C24.9617 38.4893 26.0435 38.4893 26.8325 39.2305C27.2987 39.6668 27.741 40.127 28.1952 40.5693C28.4642 40.8323 28.6375 40.8323 28.9065 40.5693C29.3308 40.1509 29.7492 39.7266 30.1796 39.3082C31.0642 38.4535 31.9786 38.3937 32.9588 39.1408C33.8375 39.8103 34.7997 40.3183 35.8816 40.5753C36.1864 40.647 36.4972 40.7247 36.8737 40.7307C36.5689 40.5215 36.3179 40.3601 36.0848 40.1808C34.0168 38.6089 32.6959 36.511 31.883 34.0843C30.9446 31.2871 30.7294 28.4003 31.0343 25.4775C31.2793 23.0629 31.9248 20.7797 33.4968 18.7893ZM36.2103 26.8702C37.3758 26.8702 38.5413 26.8761 39.7068 26.8702C40.1969 26.8702 40.5077 26.5355 40.4838 26.0513C40.4719 25.8362 40.442 25.615 40.4181 25.3998C40.2268 23.8817 39.8682 22.4114 39.1569 21.0426C38.7983 20.3613 38.368 19.7277 37.7464 19.2496C37.3818 18.9746 36.9873 18.7893 36.5151 18.7834C35.7979 18.7714 35.2719 19.148 34.8057 19.6261C34.2618 20.182 33.8853 20.8454 33.5685 21.5507C32.8453 23.1824 32.5464 24.9097 32.4269 26.6729C32.409 26.906 32.5524 26.8702 32.6899 26.8702C33.8614 26.8702 35.0388 26.8702 36.2103 26.8702Z" fill="white"/>
<path d="M24.2862 28.3699C23.3597 28.3699 22.4393 28.3759 21.5129 28.3699C21.0467 28.3699 20.7538 28.0771 20.7538 27.6407C20.7538 27.2104 21.0467 26.8936 21.5069 26.8936C23.3657 26.8876 25.2245 26.8817 27.0834 26.8936C27.5555 26.8936 27.8783 27.2224 27.8723 27.6467C27.8663 28.0711 27.5436 28.3699 27.0654 28.3699C26.133 28.3699 25.2126 28.3699 24.2862 28.3699Z" fill="white"/>
<path d="M24.8061 24.5925C23.9514 24.5925 23.0967 24.5925 22.242 24.5925C21.7639 24.5925 21.4172 24.2698 21.4232 23.8394C21.4291 23.4091 21.7639 23.1042 22.2301 23.1042C23.9514 23.1042 25.6668 23.1042 27.3882 23.1042C27.8783 23.1042 28.219 23.4091 28.219 23.8454C28.2249 24.2757 27.8783 24.5985 27.3941 24.5985C26.5335 24.5925 25.6728 24.5925 24.8061 24.5925Z" fill="white"/>
<path d="M23.031 30.6831C23.4793 30.6831 23.9275 30.6771 24.3758 30.6831C24.8002 30.6891 25.117 30.9999 25.1229 31.4063C25.1289 31.8067 24.8181 32.1534 24.3937 32.1594C23.4673 32.1713 22.5469 32.1713 21.6204 32.1594C21.1961 32.1534 20.8853 31.8008 20.9032 31.4003C20.9152 30.9879 21.226 30.6891 21.6623 30.6831C22.1165 30.6831 22.5767 30.6831 23.031 30.6831Z" fill="white"/>
</g>
<defs>
<clipPath id="clip0_222_74">
<rect width="25.8324" height="25.0016" fill="white" transform="translate(16.1516 17.2767)"/>
</clipPath>
</defs>
</svg>
