<svg width="59" height="59" viewBox="0 0 59 59" fill="none" xmlns="http://www.w3.org/2000/svg">
<circle cx="29.5548" cy="29.0418" r="29.0418" fill="#E4292B"/>
<g clip-path="url(#clip0_222_82)">
<path d="M36.0754 17.3461C36.6992 16.4177 38.2151 16.2581 39.1798 17.0197C39.6802 17.4114 39.9703 17.9264 40.0791 18.5429C40.9205 23.3227 41.7691 28.1025 42.6032 32.8823C42.8643 34.391 41.7981 35.6095 40.2242 35.6095C36.7427 35.6168 33.2612 35.6095 29.7869 35.6095C29.1124 35.6095 29.1197 35.6095 28.8876 36.2333C28.4814 37.3575 28.0752 38.4818 27.6618 39.606C27.1323 41.0494 26.4578 41.5208 24.9273 41.5281C24.4414 41.5281 23.9844 41.4628 23.571 41.2162C22.9545 40.8463 22.5846 40.3023 22.454 39.5987C22.2292 38.3657 22.0116 37.1254 21.8085 35.8924C21.7722 35.653 21.6707 35.595 21.4531 35.6023C20.9671 35.6168 20.4884 35.6095 20.0025 35.6023C18.8565 35.595 17.9426 34.8334 17.7395 33.6947C17.3333 31.4027 16.9344 29.1034 16.5282 26.8115C16.3034 25.5567 16.7748 24.6355 17.9281 24.0915C19.016 23.5766 20.1113 23.0616 21.2065 22.5466C24.9201 20.7914 28.6337 19.0433 32.34 17.2881C32.5504 17.1865 32.7535 17.085 32.9928 17.1285C33.3265 17.1865 33.5803 17.4477 33.6384 17.7813C33.6964 18.1295 33.5368 18.4123 33.1669 18.5864C31.9121 19.1884 30.6573 19.7759 29.4025 20.3707C26.8277 21.5892 24.2528 22.8077 21.6707 24.0117C21.3951 24.1423 21.3008 24.2729 21.3588 24.5847C22.2364 29.4589 23.0996 34.333 23.9627 39.2071C24.057 39.7438 24.3108 39.9541 24.8476 39.9614C25.0144 39.9614 25.1885 39.9614 25.3553 39.9614C25.7107 39.9541 25.9573 39.7873 26.0806 39.4609C26.523 38.2497 26.9582 37.0311 27.4007 35.8199C27.4732 35.624 27.4079 35.595 27.2338 35.6023C26.7044 35.6095 26.1676 35.6095 25.6381 35.6023C25.0797 35.595 24.7388 35.2976 24.7388 34.8262C24.7388 34.3692 25.0942 34.0646 25.6527 34.0646C30.3672 34.0646 35.0745 34.0646 39.789 34.0646C39.9123 34.0646 40.0284 34.0646 40.1517 34.0646C40.8987 34.0573 41.2034 33.6947 41.0801 32.9549C40.8697 31.7436 40.6449 30.5323 40.4345 29.3138C39.8253 25.8686 39.2233 22.4161 38.614 18.9708C38.5777 18.7677 38.556 18.5646 38.4399 18.3833C38.1933 18.0134 37.7436 17.9554 37.2577 18.2383C37.381 17.5274 36.8297 17.0487 36.0754 17.3461ZM20.6045 34.0864C20.7278 34.0864 20.8438 34.0864 20.9671 34.0864C21.4821 34.0864 21.4821 34.0864 21.3878 33.5786C21.1122 32.0482 20.8366 30.5106 20.5682 28.9801C20.3434 27.7181 20.1185 26.4633 19.9082 25.2013C19.8719 24.9692 19.7921 24.9184 19.5818 25.0344C19.2844 25.1868 18.9725 25.3246 18.6606 25.4624C18.0514 25.738 17.9281 25.9701 18.0441 26.6301C18.4285 28.8061 18.8129 30.982 19.2046 33.1507C19.3424 33.934 19.5383 34.0864 20.3506 34.0864C20.4304 34.0864 20.5174 34.0864 20.6045 34.0864Z" fill="white"/>
<path d="M36.0754 17.3461C36.8298 17.0488 37.381 17.5275 37.2359 18.26C35.5532 20.8421 33.8777 23.417 32.2023 25.9991C31.8396 26.5576 31.4914 27.1161 31.1143 27.6673C30.4107 28.7118 29.2357 29.0309 28.097 28.4797C26.9582 27.9212 25.8267 27.3482 24.6953 26.7752C24.2166 26.5359 24.0497 26.1224 24.2456 25.709C24.4487 25.2883 24.8983 25.165 25.3916 25.4116C26.465 25.9411 27.524 26.4851 28.5974 27.0218C29.2357 27.341 29.5404 27.2612 29.932 26.6592C31.8759 23.6781 33.8197 20.6898 35.7635 17.7088C35.8361 17.6 35.9231 17.4985 36.0101 17.3969C36.0319 17.3824 36.0609 17.3679 36.0754 17.3461Z" fill="white"/>
<path d="M36.0818 17.3461C36.0603 17.3676 36.0316 17.3891 36.0101 17.4106C36.0316 17.3819 36.0603 17.3676 36.0818 17.3461Z" fill="white"/>
</g>
<defs>
<clipPath id="clip0_222_82">
<rect width="26.1693" height="25.0016" fill="white" transform="translate(16.4702 16.541)"/>
</clipPath>
</defs>
</svg>
