<svg width="59" height="59" viewBox="0 0 59 59" fill="none" xmlns="http://www.w3.org/2000/svg">
<circle cx="29.0666" cy="29.8457" r="29.0418" fill="#089949"/>
<g clip-path="url(#clip0_222_70)">
<path d="M17.2228 45.4717C16.6115 45.1136 16.5003 44.8975 16.6115 44.1812C17.0252 41.5938 17.4513 39.0126 17.8712 36.4253C18.2849 33.8626 18.7234 31.3 19.1062 28.725C19.3223 27.2739 19.9707 26.1685 21.3354 25.5387C21.8418 25.304 22.3852 25.2299 22.9347 25.2299C26.3742 25.2299 29.8076 25.2237 33.2471 25.2361C33.5188 25.2361 33.6052 25.1558 33.6485 24.8903C33.8028 23.8344 33.9757 22.7846 34.161 21.7348C34.1919 21.5496 34.1363 21.5311 33.9881 21.5372C33.7164 21.5434 33.4385 21.5434 33.1668 21.5372C32.2529 21.5249 31.5489 20.7407 31.6848 19.8329C31.9009 18.3694 32.1356 16.9059 32.3887 15.4425C32.5061 14.7756 32.9754 14.4112 33.5867 14.2136C35.2169 14.2136 36.841 14.2136 38.4712 14.2136C38.7799 14.3556 39.1257 14.3927 39.4345 14.5409C41.0029 15.2819 41.7995 16.8689 41.5093 18.6226C40.9721 21.846 40.4534 25.0755 39.9347 28.3051C39.8482 28.8423 39.5889 29.2437 39.1257 29.5278C36.1741 31.3556 33.2224 33.1834 30.2645 35.0112C29.5976 35.4249 28.9616 35.3817 28.3441 34.8939C26.9918 33.8194 25.6394 32.7388 24.2871 31.6643C23.9536 31.3988 23.7992 31.0653 23.9042 30.6454C23.9969 30.2811 24.25 30.0526 24.6205 29.9785C24.9355 29.9168 25.1948 30.0279 25.4356 30.2255C26.6645 31.2074 27.9057 32.1892 29.1283 33.1772C29.3197 33.3316 29.4432 33.3625 29.6717 33.2204C32.4134 31.5099 35.1613 29.8118 37.9092 28.1198C38.076 28.021 38.1377 27.8975 38.1686 27.7123C38.6441 24.7544 39.1319 21.7966 39.6074 18.8387C39.6753 18.4188 39.7988 18.0051 39.7124 17.5729C39.5333 16.6651 38.8046 16.0476 37.8845 16.0414C36.7175 16.0353 35.5442 16.0414 34.3771 16.0353C34.2042 16.0353 34.1363 16.0723 34.1054 16.2576C33.9449 17.3197 33.7658 18.3818 33.5867 19.4439C33.5497 19.6662 33.6176 19.7094 33.8275 19.7094C34.1795 19.7032 34.5377 19.6662 34.8896 19.7465C35.6924 19.9379 36.1926 20.6727 36.0567 21.4878C35.8283 22.9019 35.5936 24.316 35.3589 25.7239C35.2169 26.5637 34.6303 27.0577 33.772 27.0577C30.2028 27.0577 26.6336 27.0577 23.0582 27.0577C21.8109 27.0577 21.144 27.6382 20.9464 28.867C20.4091 32.2139 19.8596 35.5608 19.3162 38.9138C19.1309 40.0686 18.9395 41.2171 18.7542 42.3719C18.7419 42.4521 18.7357 42.5324 18.7295 42.6127C18.8345 42.6683 18.8901 42.5818 18.9457 42.5448C19.8966 41.9581 20.8476 41.3715 21.7924 40.7787C22.1196 40.5688 22.4716 40.4761 22.8606 40.4761C26.683 40.4823 30.5115 40.4761 34.3339 40.4761C35.4763 40.4761 36.1432 39.9327 36.3408 38.8089C36.5878 37.3701 36.8163 35.9251 37.0509 34.4801C37.1435 33.9059 37.5758 33.5848 38.1377 33.6712C38.6379 33.7515 38.9528 34.2393 38.8602 34.7951C38.6194 36.2462 38.3785 37.7035 38.1562 39.1547C37.8784 40.9825 36.3593 42.3101 34.5006 42.3101C30.7153 42.3163 26.93 42.3101 23.1509 42.3101C22.9162 42.3101 22.7186 42.3657 22.521 42.4892C21.0575 43.4031 19.5879 44.3108 18.1182 45.2186C17.9823 45.2988 17.8465 45.3729 17.7106 45.4532C17.5501 45.4717 17.3895 45.4717 17.2228 45.4717Z" fill="white"/>
</g>
<defs>
<clipPath id="clip0_222_70">
<rect width="24.9843" height="31.2519" fill="white" transform="translate(16.5745 14.22)"/>
</clipPath>
</defs>
</svg>
