<svg width="145" height="76" viewBox="0 0 145 76" fill="none" xmlns="http://www.w3.org/2000/svg">
<path d="M0 19.25V6.75H0.5V1H5.17859V0.5H15.5357V1H25.8929V0.5H36.25V1H46.6072V0.5H56.9643V1H67.3214V0.5H77.6786V1H88.0357V0.5H98.3929V1H108.75V0.5H119.107V1H129.464V0.5H139.821V1H144.5V6.75H145V19.25H144.5V31.75H145V44.25H144.5V56.75H145V69.25H144.5V75H139.821V75.5H129.464V75H119.107V75.5H108.75V75H98.3928V75.5H88.0357V75H77.6786V75.5H67.3214V75H56.9643V75.5H46.6071V75H36.25V75.5H25.8929V75H15.5357V75.5H5.17857V75H0.5V69.25H0V56.75H0.5V44.25H0V31.75H0.5V19.25H0Z" stroke="#194F92" stroke-dasharray="11 11"/>
</svg>
