<svg width="512" height="512" viewBox="0 0 512 512" fill="none" xmlns="http://www.w3.org/2000/svg">
<path d="M429.378 203.768C396.613 203.768 368.327 227.624 354.967 262.104C352.728 267.975 347.13 270.491 342.353 267.788C337.278 264.899 335.338 257.258 338.024 251.201C343.025 240.111 350.862 223.99 356.907 216.442C366.311 204.7 377.283 195.474 389.523 189.045C399.823 183.64 410.645 180.378 421.766 179.353C402.584 131.082 362.729 98 316.753 98C261.448 98 215.025 145.899 202.785 210.291H264.658C270.255 210.291 274.808 215.976 274.808 222.965C274.808 229.954 270.255 235.638 264.658 235.638H199.799H91.0554C85.5324 235.638 81.1289 241.23 81.1289 248.032C81.1289 254.928 85.607 260.426 91.0554 260.426H200.247H226.892C232.863 260.426 237.64 266.484 237.64 273.845C237.64 281.3 232.788 287.265 226.892 287.265H204.8H27.5405C22.0175 287.265 17.614 292.856 17.614 299.659C17.614 306.554 22.0921 312.052 27.5405 312.052H196.217C202.337 312.052 207.263 318.203 207.263 325.844C207.263 333.486 202.337 339.636 196.217 339.636H69.5604C64.0373 339.636 59.6338 345.227 59.6338 352.03C59.6338 358.926 64.112 364.424 69.5604 364.424H222.862C228.385 364.424 232.788 370.015 232.788 376.818C232.788 383.621 228.31 389.212 222.862 389.212H9.92653C4.4035 389.212 0 394.803 0 401.606C0 408.502 4.47813 414 9.92653 414H373.252H429.304C448.709 414 466.547 404.681 480.355 389.212C482.892 386.323 485.28 383.248 487.594 379.986C502.671 361.256 512 335.349 512 306.834C512 250.083 474.981 203.768 429.378 203.768Z" fill="url(#paint0_linear_3318_112)"/>
<defs>
<linearGradient id="paint0_linear_3318_112" x1="232.139" y1="145.381" x2="514.812" y2="350.997" gradientUnits="userSpaceOnUse">
<stop stop-color="#2FC0ED"/>
<stop offset="1" stop-color="#081A80"/>
</linearGradient>
</defs>
</svg>
