<svg width="95" height="48" viewBox="0 0 95 48" fill="none" xmlns="http://www.w3.org/2000/svg">
<path d="M62.9067 26.6559L62.9088 26.6569C64.2801 27.2782 65.9028 26.7038 66.5557 25.3373C68.867 20.5623 73.7572 17.2631 79.4176 17.2631C87.3 17.2631 93.6993 23.6757 93.6993 31.5296C93.6993 35.4758 92.0882 39.0613 89.4799 41.6564L89.4575 41.6787L89.4366 41.7023C89.0293 42.1621 88.6134 42.5906 88.1756 42.99C85.7928 45.1267 82.7286 46.4036 79.4038 46.4036H69.0366H1.83601C1.37558 46.4036 1 46.0319 1 45.5677C1 45.1075 1.37157 44.7319 1.83601 44.7319H41.2204C42.7804 44.7319 44.0564 43.456 44.0564 41.896C44.0564 40.3409 42.7991 39.0602 41.2204 39.0602H12.8659C12.4054 39.0602 12.0298 38.6885 12.0298 38.2243C12.0298 37.7641 12.4014 37.3884 12.8659 37.3884H36.2922C37.9764 37.3884 39.3353 36.0298 39.3353 34.3455C39.3353 32.6613 37.9764 31.3026 36.2922 31.3026H5.09388C4.63345 31.3026 4.25788 30.931 4.25788 30.4668C4.25788 30.0066 4.62944 29.6309 5.09388 29.6309H37.8797H41.9659C43.6041 29.6309 44.9537 28.3044 44.9537 26.6432C44.9537 25.0049 43.627 23.6555 41.9659 23.6555H37.0376H16.8416C16.3811 23.6555 16.0056 23.2839 16.0056 22.8197C16.0056 22.3595 16.3771 21.9838 16.8416 21.9838H36.9548H48.951C50.5385 21.9838 51.8284 20.6942 51.8284 19.1066C51.8284 17.519 50.5385 16.2293 48.951 16.2293H38.813C41.3904 7.75953 49.2759 1.59619 58.5866 1.59619C66.1816 1.59619 72.8316 5.69423 76.4258 11.8186C74.7896 12.0655 73.1937 12.5151 71.6586 13.1602L71.6582 13.1604C69.2743 14.1633 67.1368 15.6029 65.3063 17.4332C64.0748 18.6646 62.5623 21.1772 61.6495 22.7984L61.6461 22.8045C60.8725 24.2012 61.4266 25.9812 62.9067 26.6559Z" fill="#FFC107" stroke="#0E2643" stroke-width="2"/>
</svg>
