<svg width="91" height="41" viewBox="0 0 91 41" fill="none" xmlns="http://www.w3.org/2000/svg">
<g clip-path="url(#clip0_27_32)">
<path d="M40.4203 32.0631C39.7409 32.0631 39.0526 31.9178 38.3909 31.6181L24.2733 25.1419C21.7498 23.9883 20.6116 20.9273 21.7322 18.3296L28.0233 3.79675C29.1439 1.199 32.1174 0.0272891 34.6409 1.18083L48.7584 7.65703C51.2819 8.81058 52.4202 11.8716 51.2996 14.4693L45.0085 29.0022C44.1702 30.9278 42.335 32.0631 40.4203 32.0631ZM39.5644 28.8932C40.632 29.3836 41.885 28.8841 42.3614 27.7941L48.6526 13.2613C49.129 12.1622 48.6437 10.8724 47.5849 10.3819L33.4586 3.90574C32.3909 3.41526 31.138 3.91483 30.6615 5.00479L24.3704 19.5376C23.8939 20.6367 24.3792 21.9265 25.438 22.417L39.5644 28.8932Z" fill="#089949"/>
<path d="M84.7052 32.0722H69.2465C66.4847 32.0722 64.2347 29.7561 64.2347 26.9131V10.9996C64.2347 8.15663 66.4847 5.84045 69.2465 5.84045L84.7052 5.84045C87.4669 5.84045 89.7169 8.15663 89.7169 10.9996V26.9131C89.7169 29.7561 87.4669 32.0722 84.7052 32.0722ZM69.2465 8.81969C68.0818 8.81969 67.1288 9.80065 67.1288 10.9996V26.9131C67.1288 28.112 68.0818 29.093 69.2465 29.093H84.7052C85.8699 29.093 86.8228 28.112 86.8228 26.9131V10.9996C86.8228 9.80065 85.8699 8.81969 84.7052 8.81969H69.2465Z" fill="#F9B21D"/>
<path d="M26.8145 13.9152L24.7321 18.7111C24.7057 18.7656 24.6792 18.811 24.6527 18.8564L25.4645 24.0156C25.6498 25.2054 24.8645 26.3227 23.7174 26.5134L8.45285 29.0567C7.89697 29.1475 7.33227 29.0112 6.87345 28.6752C6.41463 28.3391 6.11463 27.8304 6.0264 27.2582L3.55583 11.5446C3.46759 10.9723 3.59995 10.391 3.92641 9.91871C4.25288 9.44639 4.747 9.13756 5.30288 9.04673L20.5675 6.50349C20.6822 6.48532 20.7969 6.47624 20.9028 6.47624C21.9175 6.47624 22.8263 7.23921 22.9939 8.31101L23.8145 13.5065L25.9674 8.53808L25.8527 7.83869C25.4115 5.03203 22.8351 3.11552 20.1086 3.56967L4.84406 6.11292C3.52936 6.32183 2.36466 7.05755 1.5882 8.17476C0.802909 9.29198 0.494088 10.6544 0.705851 12.0169L3.17642 27.7305C3.38818 29.093 4.10288 30.2829 5.18817 31.0913C6.04405 31.7361 7.05874 32.0631 8.10874 32.0631C8.37344 32.0631 8.64697 32.045 8.9205 31.9996L24.1851 29.4563C26.9115 29.0022 28.7733 26.3499 28.3321 23.5433L26.8145 13.9152Z" fill="#E42527"/>
<path d="M45.1231 21.4178L47.3643 16.2496L46.729 11.4447C46.6496 10.8724 46.7996 10.3002 47.1437 9.83698C47.4878 9.37374 47.9819 9.074 48.5466 9.00134L63.8642 6.85774C63.9612 6.84866 64.0583 6.83958 64.1553 6.83958C64.6142 6.83958 65.0553 6.99399 65.4347 7.28464C65.5053 7.33914 65.5671 7.40272 65.6289 7.45722C66.3083 6.7215 67.1994 6.19468 68.1965 5.9676C67.9141 5.56795 67.5789 5.21371 67.1818 4.90489C66.1142 4.06925 64.7995 3.71501 63.4759 3.89667L48.1408 6.04027C46.8172 6.22193 45.6349 6.93041 44.832 8.02945C44.0202 9.1285 43.6761 10.4819 43.8526 11.8443L45.1231 21.4178Z" fill="#226DB4"/>
<path d="M71.1876 24.0792L69.1759 8.8197C68.0465 8.85603 67.1376 9.81884 67.1376 10.9905V15.4685L68.3288 24.4788C68.4082 25.0511 68.2582 25.6233 67.9141 26.0865C67.57 26.5498 67.0759 26.8495 66.5112 26.9222L51.1937 29.0658C50.6378 29.1475 50.0819 28.9931 49.6319 28.6389C49.1819 28.2846 48.8907 27.776 48.8201 27.1947L48.1143 21.8448L45.8731 27.013L45.9525 27.5943C46.129 28.9568 46.8172 30.1739 47.8849 31.0005C48.7672 31.6908 49.8172 32.0541 50.9113 32.0541C51.1407 32.0541 51.3701 32.0359 51.5995 32.0087L66.8994 29.8832C68.2229 29.7016 69.4053 28.9931 70.2082 27.8941C71.02 26.795 71.3641 25.4416 71.1876 24.0792Z" fill="#226DB4"/>
<path d="M27.9703 39.6202L30.1586 36.2958H28.3586C28.2615 36.2958 28.1821 36.2141 28.1821 36.1142V35.6691C28.1821 35.5692 28.2615 35.4874 28.3586 35.4874H31.3144C31.4115 35.4874 31.4909 35.5692 31.4909 35.6691V35.8417C31.4909 35.878 31.4821 35.9143 31.4644 35.9416L29.3203 39.266H31.2438C31.3409 39.266 31.4203 39.3477 31.4203 39.4476V39.8927C31.4203 39.9926 31.3409 40.0744 31.2438 40.0744H28.1203C28.0233 40.0744 27.9439 39.9926 27.9439 39.8927V39.7292C27.9351 39.6838 27.9527 39.6475 27.9703 39.6202Z" fill="black"/>
<path d="M37.1821 37.7491C37.1821 36.3866 38.1526 35.4056 39.4762 35.4056C40.8438 35.4056 41.7703 36.3684 41.7703 37.7581C41.7703 39.166 40.8262 40.1379 39.4585 40.1379C38.0821 40.1379 37.1821 39.166 37.1821 37.7491ZM40.7203 37.7672C40.7203 36.9407 40.332 36.2322 39.4585 36.2322C38.5762 36.2322 38.2409 36.9679 38.2409 37.8036C38.2409 38.5938 38.6556 39.3204 39.5026 39.3204C40.3762 39.3113 40.7203 38.5393 40.7203 37.7672Z" fill="black"/>
<path d="M48.0437 35.4781H48.6967C48.7937 35.4781 48.8732 35.5599 48.8732 35.6598V37.3493H50.7261V35.6598C50.7261 35.5599 50.8055 35.4781 50.9026 35.4781H51.5555C51.6525 35.4781 51.732 35.5599 51.732 35.6598V39.8834C51.732 39.9833 51.6525 40.0651 51.5555 40.0651H50.9114C50.8143 40.0651 50.7349 39.9833 50.7349 39.8834V38.1758H48.882V39.8834C48.882 39.9833 48.8026 40.0651 48.7055 40.0651H48.0526C47.9555 40.0651 47.8761 39.9833 47.8761 39.8834V35.6598C47.8673 35.5599 47.9467 35.4781 48.0437 35.4781Z" fill="black"/>
<path d="M57.829 37.7491C57.829 36.3866 58.7996 35.4056 60.1231 35.4056C61.4907 35.4056 62.4172 36.3684 62.4172 37.7581C62.4172 39.166 61.4731 40.1379 60.1054 40.1379C58.729 40.1379 57.829 39.166 57.829 37.7491ZM61.3584 37.7672C61.3584 36.9407 60.9701 36.2322 60.0966 36.2322C59.2143 36.2322 58.879 36.9679 58.879 37.8036C58.879 38.5938 59.2937 39.3204 60.1407 39.3204C61.0142 39.3113 61.3584 38.5393 61.3584 37.7672Z" fill="black"/>
<path d="M39.7794 31.9901C39.1 31.9901 38.4118 31.8448 37.75 31.5451L23.6325 25.0689C21.1089 23.9153 19.9707 20.8543 21.0913 18.2566L27.3824 3.72375C28.503 1.126 31.4765 -0.045709 34 1.10784L48.1176 7.58404C50.6411 8.73758 51.7793 11.7986 50.6587 14.3963L44.3676 28.9292C43.5294 30.8548 41.6941 31.9901 39.7794 31.9901ZM38.9235 28.8202C39.9912 29.3106 41.2441 28.8111 41.7206 27.7211L48.0117 13.1883C48.4882 12.0892 48.0029 10.7994 46.944 10.3089L32.8177 3.83274C31.75 3.34226 30.4971 3.84183 30.0206 4.93179L23.7295 19.4646C23.2531 20.5637 23.7383 21.8535 24.7972 22.344L38.9235 28.8202Z" fill="#089949"/>
<path d="M84.0643 31.9992H68.6056C65.8439 31.9992 63.5939 29.6831 63.5939 26.8401V10.9266C63.5939 8.08363 65.8439 5.76746 68.6056 5.76746H84.0643C86.826 5.76746 89.076 8.08363 89.076 10.9266V26.8401C89.076 29.6831 86.826 31.9992 84.0643 31.9992ZM68.6056 8.74669C67.4409 8.74669 66.488 9.72766 66.488 10.9266V26.8401C66.488 28.039 67.4409 29.02 68.6056 29.02H84.0643C85.229 29.02 86.1819 28.039 86.1819 26.8401V10.9266C86.1819 9.72766 85.229 8.74669 84.0643 8.74669H68.6056Z" fill="#F9B21D"/>
<path d="M26.1736 13.8422L24.0913 18.6381C24.0648 18.6926 24.0383 18.738 24.0119 18.7834L24.8236 23.9426C25.0089 25.1324 24.2236 26.2497 23.0766 26.4404L7.81198 28.9837C7.2561 29.0745 6.6914 28.9382 6.23258 28.6022C5.77376 28.2661 5.47376 27.7574 5.38553 27.1852L2.91496 11.4716C2.82673 10.8993 2.95908 10.318 3.28555 9.84571C3.61201 9.37339 4.10613 9.06457 4.66201 8.97374L19.9266 6.43049C20.0413 6.41232 20.156 6.40324 20.2619 6.40324C21.2766 6.40324 22.1854 7.16621 22.3531 8.23801L23.1736 13.4335L25.3266 8.46509L25.2119 7.76569C24.7707 4.95904 22.1942 3.04252 19.4678 3.49667L4.20319 6.03992C2.88849 6.24883 1.72379 6.98455 0.947328 8.10177C0.16204 9.21898 -0.146781 10.5814 0.0649818 11.9439L2.53555 27.6575C2.74731 29.02 3.46202 30.2099 4.5473 31.0183C5.40318 31.6631 6.41788 31.9901 7.46787 31.9901C7.73257 31.9901 8.0061 31.972 8.27963 31.9266L23.5442 29.3833C26.2707 28.9292 28.1324 26.2769 27.6912 23.4703L26.1736 13.8422Z" fill="#E42527"/>
<path d="M44.4823 21.3448L46.7234 16.1766L46.0881 11.3717C46.0087 10.7994 46.1587 10.2272 46.5028 9.76398C46.847 9.30074 47.3411 9.001 47.9058 8.92834L63.2233 6.78474C63.3204 6.77566 63.4174 6.76658 63.5145 6.76658C63.9733 6.76658 64.4145 6.92099 64.7939 7.21165C64.8645 7.26614 64.9262 7.32973 64.988 7.38422C65.6674 6.6485 66.5586 6.12168 67.5556 5.89461C67.2733 5.49495 66.938 5.14071 66.5409 4.83189C65.4733 3.99625 64.1586 3.64201 62.8351 3.82368L47.4999 5.96727C46.1764 6.14893 44.994 6.85741 44.1911 7.95645C43.3793 9.0555 43.0352 10.4089 43.2117 11.7713L44.4823 21.3448Z" fill="#226DB4"/>
<path d="M70.5467 24.0062L68.535 8.7467C67.4056 8.78304 66.4968 9.74584 66.4968 10.9175V15.3955L67.6879 24.4058C67.7674 24.9781 67.6174 25.5503 67.2732 26.0135C66.9291 26.4768 66.435 26.7765 65.8703 26.8492L50.5528 28.9928C49.9969 29.0745 49.441 28.9201 48.991 28.5659C48.541 28.2116 48.2499 27.703 48.1793 27.1217L47.4734 21.7718L45.2322 26.94L45.3116 27.5213C45.4881 28.8838 46.1763 30.1009 47.244 30.9275C48.1263 31.6178 49.1763 31.9811 50.2704 31.9811C50.4998 31.9811 50.7293 31.9629 50.9587 31.9357L66.2585 29.8103C67.5821 29.6286 68.7644 28.9201 69.5673 27.8211C70.3791 26.722 70.7232 25.3687 70.5467 24.0062Z" fill="#226DB4"/>
<path d="M27.3295 39.5472L29.5177 36.2228H27.7177C27.6206 36.2228 27.5412 36.1411 27.5412 36.0412V35.5961C27.5412 35.4962 27.6206 35.4144 27.7177 35.4144H30.6736C30.7706 35.4144 30.85 35.4962 30.85 35.5961V35.7687C30.85 35.805 30.8412 35.8413 30.8236 35.8686L28.6795 39.193H30.603C30.7 39.193 30.7794 39.2747 30.7794 39.3746V39.8197C30.7794 39.9196 30.7 40.0014 30.603 40.0014H27.4795C27.3824 40.0014 27.303 39.9196 27.303 39.8197V39.6562C27.2942 39.6108 27.3118 39.5745 27.3295 39.5472Z" fill="black"/>
<path d="M36.5412 37.6761C36.5412 36.3136 37.5118 35.3326 38.8353 35.3326C40.2029 35.3326 41.1294 36.2954 41.1294 37.6851C41.1294 39.093 40.1853 40.0649 38.8177 40.0649C37.4412 40.0649 36.5412 39.093 36.5412 37.6761ZM40.0794 37.6942C40.0794 36.8677 39.6912 36.1592 38.8177 36.1592C37.9353 36.1592 37.6 36.8949 37.6 37.7306C37.6 38.5208 38.0147 39.2474 38.8618 39.2474C39.7353 39.2383 40.0794 38.4663 40.0794 37.6942Z" fill="black"/>
<path d="M47.4029 35.4052H48.0558C48.1529 35.4052 48.2323 35.4869 48.2323 35.5868V37.2763H50.0852V35.5868C50.0852 35.4869 50.1646 35.4052 50.2617 35.4052H50.9146C51.0117 35.4052 51.0911 35.4869 51.0911 35.5868V39.8104C51.0911 39.9103 51.0117 39.9921 50.9146 39.9921H50.2705C50.1734 39.9921 50.094 39.9103 50.094 39.8104V38.1028H48.2411V39.8104C48.2411 39.9103 48.1617 39.9921 48.0646 39.9921H47.4117C47.3146 39.9921 47.2352 39.9103 47.2352 39.8104V35.5868C47.2264 35.4869 47.3058 35.4052 47.4029 35.4052Z" fill="black"/>
<path d="M57.1881 37.6761C57.1881 36.3136 58.1587 35.3326 59.4822 35.3326C60.8498 35.3326 61.7763 36.2954 61.7763 37.6851C61.7763 39.093 60.8322 40.0649 59.4646 40.0649C58.0881 40.0649 57.1881 39.093 57.1881 37.6761ZM60.7175 37.6942C60.7175 36.8677 60.3293 36.1592 59.4557 36.1592C58.5734 36.1592 58.2381 36.8949 58.2381 37.7306C58.2381 38.5208 58.6528 39.2474 59.4999 39.2474C60.3734 39.2383 60.7175 38.4663 60.7175 37.6942Z" fill="black"/>
</g>
<defs>
<clipPath id="clip0_27_32">
<rect width="90.3522" height="40.8736" fill="white"/>
</clipPath>
</defs>
</svg>
